<?xml version="1.0" standalone="no"?>
<!DOCTYPE svg PUBLIC "-//W3C//DTD SVG 20010904//EN"
 "http://www.w3.org/TR/2001/REC-SVG-20010904/DTD/svg10.dtd">
<svg version="1.0" xmlns="http://www.w3.org/2000/svg"
 width="504.000000pt" height="504.000000pt" viewBox="0 0 504.000000 504.000000"
 preserveAspectRatio="xMidYMid meet">
<metadata>
Created by potrace 1.14, written by Peter Selinger 2001-2017
</metadata>
<g transform="translate(0.000000,504.000000) scale(0.100000,-0.100000)"
fill="#000000" stroke="none">
<path d="M441 3238 c-24 -62 -101 -253 -215 -534 -69 -171 -126 -314 -126
-318 0 -3 27 -6 60 -6 55 0 61 2 73 28 8 15 74 177 147 360 l133 333 14 -33
c8 -18 69 -168 135 -333 66 -165 127 -312 134 -327 13 -26 19 -28 75 -28 45 0
60 3 56 13 -29 73 -253 632 -267 662 -9 22 -32 77 -50 123 l-32 82 -64 0 c-58
0 -65 -2 -73 -22z"/>
<path d="M750 3234 c6 -14 14 -33 19 -42 8 -16 152 -17 2133 -17 l2123 0 3 43
3 42 -2145 0 -2146 0 10 -26z"/>
<path d="M2591 3014 c-158 -33 -256 -165 -245 -332 7 -120 71 -219 171 -269
50 -24 69 -28 143 -27 71 1 93 5 137 27 109 56 164 143 171 272 3 64 0 91 -17
136 -55 146 -202 225 -360 193z m167 -96 c166 -78 166 -348 -1 -435 -16 -8
-55 -16 -86 -18 -141 -9 -245 102 -236 252 5 94 45 162 118 200 67 35 130 36
205 1z"/>
<path d="M4191 3018 c-64 -10 -143 -50 -178 -93 -53 -62 -78 -133 -78 -225 0
-74 4 -92 29 -143 35 -67 89 -120 155 -150 63 -29 178 -29 241 -1 44 21 110
70 110 82 0 4 -16 17 -35 30 l-35 22 -32 -30 c-84 -81 -242 -55 -311 53 -56
86 -44 235 26 310 29 32 97 67 134 71 46 4 103 -13 139 -41 l34 -25 35 23 34
24 -22 23 c-51 55 -153 84 -246 70z"/>
<path d="M1197 3006 c-132 -47 -209 -169 -203 -322 5 -123 74 -227 185 -277
70 -33 179 -30 252 5 30 15 65 38 78 52 l22 24 -34 26 -35 27 -33 -30 c-42
-39 -75 -50 -141 -47 -115 6 -192 83 -204 204 -11 102 30 196 106 245 66 42
165 38 227 -9 l33 -25 30 21 c17 12 30 27 30 33 0 16 -59 55 -107 73 -49 17
-157 17 -206 0z"/>
<path d="M1590 2969 l0 -39 95 0 c69 0 95 -3 96 -12 0 -7 1 -128 2 -267 l2
-255 28 1 c15 1 33 1 40 2 11 1 14 52 13 264 l0 262 97 3 97 3 0 38 0 39 -235
0 -235 0 0 -39z"/>
<path d="M2147 3002 c-7 -12 -2 -590 4 -596 4 -4 22 -8 42 -9 l36 -3 0 307 -1
307 -39 0 c-21 0 -40 -2 -42 -6z"/>
<path d="M3076 3001 c-8 -13 -3 -601 5 -602 5 -1 20 -1 34 -1 14 0 28 0 33 1
4 1 7 111 7 245 0 134 2 243 6 240 3 -2 80 -113 169 -246 l163 -243 49 0 c26
0 49 2 49 5 1 3 3 140 3 306 l2 301 -40 -1 -41 -1 0 -242 c0 -134 -2 -243 -5
-243 -3 0 -78 110 -166 243 l-162 244 -51 0 c-28 1 -53 -2 -55 -6z"/>
<path d="M3735 3003 c-11 -3 -13 -582 -3 -599 6 -8 26 -10 71 -5 4 1 7 138 7
306 l0 304 -32 -1 c-18 -1 -37 -3 -43 -5z"/>
<path d="M4560 2968 l0 -38 95 0 c92 0 95 -1 96 -22 1 -13 1 -132 1 -265 0
-134 4 -243 9 -244 5 0 24 -1 42 -2 l32 -1 2 255 c0 140 2 260 2 267 1 9 27
12 96 12 l95 0 0 39 0 39 -235 0 -235 -1 0 -39z"/>
<path d="M22 2203 c-5 -16 -13 -35 -17 -44 -6 -15 202 -16 2509 -16 l2516 0 0
43 0 44 -2499 0 -2499 0 -10 -27z"/>
<path d="M2894 1997 c-91 -125 -105 -147 -92 -147 7 0 22 14 31 30 15 24 25
30 54 30 34 0 35 -1 30 -30 -5 -22 -3 -30 8 -30 8 0 15 6 16 13 0 6 2 44 5 82
2 39 6 76 9 83 11 29 -33 8 -61 -31z m32 -9 c-3 -13 -5 -31 -5 -40 -1 -12 -9
-18 -25 -18 l-25 0 26 40 c31 46 34 49 29 18z"/>
<path d="M3070 2021 c-45 -24 -69 -57 -77 -105 -5 -31 -2 -42 12 -52 22 -16
81 -19 90 -4 4 6 -8 10 -29 10 -43 0 -57 21 -44 67 12 46 61 83 109 83 21 0
39 5 39 10 0 17 -63 11 -100 -9z"/>
<path d="M3200 2030 c0 -5 11 -10 25 -10 14 0 25 -2 25 -5 0 -11 -54 -141 -64
-154 -8 -10 -6 -12 8 -10 12 3 29 31 50 84 30 75 34 80 64 83 60 6 32 22 -38
22 -40 0 -70 -4 -70 -10z"/>
<path d="M3405 2030 c-4 -6 5 -10 20 -10 30 0 29 -6 -11 -99 -27 -60 -29 -74
-13 -69 6 2 26 40 43 83 30 75 34 80 64 83 18 2 32 7 32 13 0 12 -127 12 -135
-1z"/>
<path d="M3584 2021 c-65 -40 -97 -138 -53 -162 48 -25 125 17 153 86 16 39
16 56 -3 79 -18 21 -59 20 -97 -3z m81 -24 c18 -70 -91 -167 -123 -110 -24 41
38 133 90 133 20 0 29 -6 33 -23z"/>
<path d="M3818 1948 c-37 -50 -65 -94 -62 -97 3 -3 18 9 33 27 21 24 36 32 60
32 30 0 32 -2 27 -30 -3 -21 0 -30 10 -30 8 0 15 10 15 23 1 12 3 31 4 42 1
11 4 42 6 70 5 77 -16 69 -93 -37z m69 27 c-3 -20 -6 -37 -8 -39 -10 -10 -38
-10 -37 -1 2 12 38 75 44 75 3 0 3 -16 1 -35z"/>
<path d="M3994 2003 c-9 -21 -24 -58 -35 -82 -30 -69 -27 -75 31 -68 63 8 92
27 120 81 39 72 17 106 -68 106 -29 0 -35 -5 -48 -37z m110 -8 c8 -22 -37 -99
-67 -113 -15 -7 -38 -12 -51 -10 l-24 3 24 50 c13 28 23 55 24 62 0 6 7 18 15
27 12 12 22 13 44 5 16 -6 32 -16 35 -24z"/>
<path d="M4179 2033 c0 -4 -2 -17 -4 -28 -2 -11 -6 -50 -8 -87 -4 -51 -1 -68
8 -68 7 0 45 43 83 95 39 52 65 95 58 95 -7 0 -37 -34 -67 -75 -29 -41 -55
-75 -57 -75 -3 0 6 107 11 133 1 5 -4 12 -10 14 -7 3 -13 1 -14 -4z"/>
<path d="M4364 1997 c-91 -125 -105 -147 -92 -147 7 0 22 14 31 30 15 24 25
30 54 30 34 0 35 -1 30 -30 -5 -22 -3 -30 8 -30 8 0 15 8 15 18 1 29 11 136
15 155 6 32 -29 17 -61 -26z m32 -19 c-3 -18 -5 -36 -5 -40 -1 -5 -12 -8 -26
-8 l-25 0 26 40 c15 22 28 40 30 40 2 0 2 -15 0 -32z"/>
<path d="M4513 2003 c-8 -21 -25 -63 -38 -93 -13 -30 -22 -57 -20 -59 10 -9
26 16 51 79 15 39 28 69 30 68 1 -2 4 -21 7 -43 11 -78 20 -105 32 -105 7 0
29 39 49 88 38 92 41 102 28 102 -5 0 -22 -32 -37 -70 -27 -67 -36 -77 -41
-45 -1 7 -5 32 -8 55 -10 72 -29 80 -53 23z"/>
<path d="M4730 2022 c-46 -25 -70 -60 -77 -109 -5 -35 -2 -43 16 -52 23 -13
91 -12 91 1 0 4 -16 8 -35 8 -42 0 -56 21 -43 67 12 45 63 85 104 81 19 -1 35
2 36 7 5 18 -57 16 -92 -3z"/>
<path d="M4864 2003 c-9 -21 -22 -51 -29 -68 -7 -16 -17 -42 -23 -57 l-12 -28
50 0 c27 0 52 5 55 10 4 6 -10 10 -34 10 l-40 0 14 33 c10 26 20 33 47 35 18
2 38 8 43 14 7 6 5 9 -5 8 -8 -1 -25 -2 -37 -1 -19 1 -20 4 -10 31 11 29 30
37 75 31 6 -1 12 3 12 9 0 5 -20 10 -46 10 -43 0 -46 -2 -60 -37z"/>
</g>
</svg>
