<?xml version="1.0" standalone="no"?>
<!DOCTYPE svg PUBLIC "-//W3C//DTD SVG 20010904//EN"
 "http://www.w3.org/TR/2001/REC-SVG-20010904/DTD/svg10.dtd">
<svg version="1.0" xmlns="http://www.w3.org/2000/svg"
 width="512.000000pt" height="512.000000pt" viewBox="0 0 512.000000 512.000000"
 preserveAspectRatio="xMidYMid meet">
<metadata>
Created by potrace 1.14, written by Peter Selinger 2001-2017
</metadata>
<g transform="translate(0.000000,512.000000) scale(0.100000,-0.100000)"
fill="#000000" stroke="none">
<path d="M1500 4683 c-139 -21 -250 -106 -321 -247 -21 -43 -39 -86 -39 -95 0
-9 -5 -22 -12 -29 -7 -7 -9 -12 -6 -12 3 0 0 -23 -7 -50 -32 -123 -37 -376
-10 -555 3 -16 7 -47 10 -67 9 -66 15 -101 34 -185 l18 -82 -71 -21 c-39 -11
-80 -25 -91 -29 -11 -5 -65 -26 -120 -46 -276 -105 -517 -270 -629 -430 -68
-97 -90 -156 -93 -258 -5 -202 117 -378 392 -562 104 -69 333 -178 478 -225
70 -24 127 -48 127 -54 0 -7 -9 -53 -20 -102 -11 -50 -22 -115 -26 -145 -3
-30 -8 -56 -10 -59 -6 -12 -18 -209 -17 -288 2 -136 13 -234 34 -298 5 -17 12
-42 14 -55 7 -39 82 -181 113 -214 52 -57 113 -97 180 -121 93 -33 246 -29
377 10 191 57 456 213 635 372 19 18 55 50 80 72 l44 40 81 -72 c227 -205 436
-337 643 -406 103 -34 153 -42 247 -42 316 3 493 278 493 767 0 151 -15 289
-48 453 -12 57 -20 106 -18 108 2 2 57 22 122 44 211 73 446 193 571 292 211
167 305 327 292 496 -11 148 -85 268 -252 408 -151 127 -417 261 -667 336 -43
13 -78 28 -78 33 0 6 11 64 24 130 14 66 28 152 31 190 4 39 9 84 11 100 6 45
6 275 0 315 -16 106 -17 111 -30 175 -32 154 -139 312 -247 367 -71 36 -109
44 -199 47 -251 7 -582 -163 -925 -473 -27 -25 -54 -46 -58 -46 -5 0 -43 31
-85 70 -237 214 -500 368 -727 425 -66 17 -190 25 -245 18z m2138 -222 c86
-44 146 -171 171 -361 9 -66 7 -310 -2 -365 -3 -16 -11 -66 -17 -110 -6 -44
-18 -111 -27 -148 -14 -63 -17 -68 -37 -63 -29 9 -212 44 -261 51 -23 3 -50 7
-60 9 -11 2 -45 7 -75 11 -30 3 -66 8 -80 10 -14 2 -52 7 -85 10 -33 3 -60 7
-61 8 -29 52 -282 373 -361 457 l-42 45 37 34 c20 18 55 50 77 70 22 20 85 70
140 112 282 211 546 300 683 230z m-1913 -3 c89 -24 246 -101 355 -173 96 -64
248 -185 300 -240 30 -31 33 -38 20 -48 -18 -14 -141 -155 -185 -211 -16 -21
-35 -44 -40 -50 -6 -6 -46 -59 -90 -118 -63 -85 -85 -108 -105 -109 -14 -1
-34 -3 -45 -4 -138 -17 -243 -32 -290 -40 -27 -5 -104 -19 -175 -31 -14 -3
-40 -9 -59 -14 -19 -5 -37 -7 -41 -5 -4 2 -14 44 -24 92 -9 48 -21 106 -26
128 -29 134 -33 444 -7 564 19 87 64 188 98 221 66 62 175 76 314 38z m1018
-806 c45 -56 83 -106 85 -110 1 -5 -121 -8 -272 -8 -206 0 -273 3 -268 12 11
18 62 81 144 178 43 50 88 103 100 118 l23 27 53 -57 c29 -31 90 -103 135
-160z m234 -337 c39 -12 240 -341 417 -681 l37 -72 -47 -93 c-39 -80 -147
-275 -203 -371 -9 -16 -54 -89 -100 -163 l-85 -135 -50 -1 c-28 -1 -62 -3 -76
-5 -31 -4 -565 -4 -635 0 -27 2 -64 4 -82 5 -29 1 -38 10 -96 99 -70 107 -187
300 -187 308 0 3 -8 18 -19 32 -34 49 -161 300 -161 318 0 23 97 214 197 387
63 110 213 349 230 367 11 12 172 17 493 14 190 -1 355 -5 367 -9z m-1127 -34
c0 -4 -15 -29 -33 -56 -31 -47 -130 -217 -210 -363 l-34 -62 -33 82 c-58 146
-119 327 -112 332 4 2 25 7 47 11 40 8 56 11 97 20 12 2 40 7 63 10 22 3 47 8
55 10 8 2 40 7 70 10 30 4 56 8 58 9 5 5 32 2 32 -3z m1505 -7 c22 -3 49 -7
60 -9 11 -1 38 -6 60 -10 92 -15 201 -38 208 -44 9 -9 -66 -231 -128 -375
l-16 -38 -26 48 c-14 27 -53 96 -86 154 -33 58 -68 119 -77 135 -9 17 -33 56
-53 87 -21 31 -37 60 -37 63 0 4 12 4 28 1 15 -3 45 -8 67 -12z m-2088 -244
c43 -127 97 -265 138 -355 54 -120 54 -107 -9 -255 -51 -120 -121 -305 -158
-420 -8 -25 -22 -46 -31 -48 -22 -4 -274 91 -382 145 -262 131 -445 309 -458
447 -14 147 158 326 452 468 110 54 366 149 390 145 9 -1 31 -50 58 -127z
m2758 88 c44 -16 89 -32 100 -35 51 -14 276 -128 350 -178 150 -100 254 -221
270 -313 15 -91 -46 -191 -195 -323 -33 -29 -140 -98 -215 -138 -135 -74 -420
-182 -434 -165 -4 5 -15 34 -25 64 -44 128 -109 292 -173 433 l-45 98 50 117
c64 147 112 271 153 389 36 107 22 102 164 51z m-393 -1018 c66 -170 70 -188
50 -199 -10 -5 -87 -21 -172 -35 -219 -36 -254 -40 -248 -30 3 5 39 65 80 134
74 124 138 237 166 295 35 71 31 77 124 -165z m-1993 97 c41 -77 169 -295 205
-350 13 -20 15 -26 5 -23 -8 3 -39 7 -69 10 -30 3 -66 8 -80 10 -14 2 -57 10
-97 16 -39 6 -77 13 -85 14 -7 2 -32 7 -55 11 -24 4 -43 9 -43 10 0 9 55 167
88 255 69 181 61 166 76 144 7 -10 32 -54 55 -97z m2135 -559 c104 -471 45
-890 -137 -985 -69 -35 -218 -20 -358 39 -143 60 -352 201 -503 340 l-69 63
83 95 c45 52 128 156 184 231 55 75 110 148 121 162 18 23 29 27 100 32 44 3
89 8 100 10 11 2 42 7 69 10 98 12 383 65 392 74 1 0 9 -32 18 -71z m-2300 36
c22 -3 43 -7 46 -9 3 -2 33 -7 65 -10 33 -4 62 -9 65 -10 3 -2 33 -6 65 -10
33 -3 67 -8 75 -10 8 -2 53 -7 100 -11 47 -4 92 -8 100 -9 8 -1 52 -51 98
-111 106 -139 127 -164 239 -293 l92 -106 -62 -58 c-34 -33 -108 -94 -164
-136 -267 -201 -538 -301 -692 -255 -198 59 -263 440 -160 951 6 29 10 56 11
60 0 5 4 16 9 25 7 13 15 15 41 8 17 -5 49 -12 72 -16z m1349 -114 c-16 -25
-122 -160 -132 -170 -4 -3 -23 -25 -43 -50 -20 -25 -48 -57 -61 -72 l-24 -28
-54 62 c-52 60 -229 276 -229 281 0 1 126 2 280 2 l279 0 -16 -25z"/>
<path d="M2453 2980 c-107 -25 -229 -124 -279 -226 -165 -337 147 -704 509
-599 173 50 301 225 299 410 -2 241 -192 427 -432 424 -36 -1 -80 -4 -97 -9z"/>
</g>
</svg>
